inDegrees=no
num_controls=7
num_derivatives=13
num_iterations=125
num_multipliers=7
num_parameters=0
num_slacks=7
num_states=26
objective=4.279723
objective_accelerations=0.484686
objective_balance=0.052511
objective_effort=0.597290
objective_height=3.073582
objective_ligament=0.071654
solver_duration=1276.450952
status=Solve_Succeeded
success=true
DataType=double
version=3
OpenSimVersion=4.4-2022-07-23-0e9fedc
endheader
time	/jointset/ground_pelvis/pelvis_tilt/value	/jointset/ground_pelvis/pelvis_tx/value	/jointset/ground_pelvis/pelvis_ty/value	/jointset/hip_l/hip_flexion_l/value	/jointset/hip_l/hip_adduction_l/value	/jointset/hip_l/hip_rotation_l/value	/jointset/back/lumbar_extension/value	/jointset/patellofemoral_l/patellar_flexion_l/value	/jointset/knee_l/knee_flexion_l/value	/jointset/knee_l/knee_adduction_l/value	/jointset/knee_l/knee_rotation_l/value	/jointset/ankle_l/ankle_angle_l/value	/jointset/subtalar_l/subtalar_angle_l/value	/jointset/ground_pelvis/pelvis_tilt/speed	/jointset/ground_pelvis/pelvis_tx/speed	/jointset/ground_pelvis/pelvis_ty/speed	/jointset/hip_l/hip_flexion_l/speed	/jointset/hip_l/hip_adduction_l/speed	/jointset/hip_l/hip_rotation_l/speed	/jointset/back/lumbar_extension/speed	/jointset/patellofemoral_l/patellar_flexion_l/speed	/jointset/knee_l/knee_flexion_l/speed	/jointset/knee_l/knee_adduction_l/speed	/jointset/knee_l/knee_rotation_l/speed	/jointset/ankle_l/ankle_angle_l/speed	/jointset/subtalar_l/subtalar_angle_l/speed	/forceset/tau_hip_flexion_l	/forceset/tau_hip_adduction_l	/forceset/tau_hip_rotation_l	/forceset/tau_knee_flexion_l	/forceset/tau_ankle_angle_l	/forceset/tau_subtalar_angle_l	/forceset/tau_lumbar_extension	lambda_cid13_p0	lambda_cid13_p1	lambda_cid13_p2	lambda_cid13_p3	lambda_cid13_p4	lambda_cid13_p5	lambda_cid14_p0	/jointset/ground_pelvis/pelvis_tilt/accel	/jointset/ground_pelvis/pelvis_tx/accel	/jointset/ground_pelvis/pelvis_ty/accel	/jointset/hip_l/hip_flexion_l/accel	/jointset/hip_l/hip_adduction_l/accel	/jointset/hip_l/hip_rotation_l/accel	/jointset/back/lumbar_extension/accel	/jointset/patellofemoral_l/patellar_flexion_l/accel	/jointset/knee_l/knee_flexion_l/accel	/jointset/knee_l/knee_adduction_l/accel	/jointset/knee_l/knee_rotation_l/accel	/jointset/ankle_l/ankle_angle_l/accel	/jointset/subtalar_l/subtalar_angle_l/accel	gamma_cid13_p0	gamma_cid13_p1	gamma_cid13_p2	gamma_cid13_p3	gamma_cid13_p4	gamma_cid13_p5	gamma_cid14_p0
1.5	0.01236857420348949	-0.001960652828410245	0.8030191695011588	0.8323833153283424	-0.3222753688384802	-0.08172637768852931	-0.8082311143074196	1.046248844692833	1.046248844693905	-0.04110342027365686	-0.1745158451915543	0.2825221875395727	0.07691732099444336	0.2973429178724347	0.1801446883588832	0.6580537609531106	-2.422561073788381	0.06875269695422476	-0.7058360952164373	0.8054930086225318	-2.672668990019525	-2.67266899001958	-0.2981745777720441	0.0001010028860689554	-0.7209963830604486	-0.2246127867727692	-0.1970528453425853	0.02281725543593874	-0.008899206608178391	-0.2857408828489467	0.02920464194270105	0.04122719098666944	0.2794923091455576	-31.00709989490516	-13.66332942463704	3.08038755701436	-7.798182321296022	-656.397776855553	-73.85696520790498	-4.823622790469117	0.1669830433403677	0.7685215465826416	-0.8956060636161758	-0.8160382723793622	0.47274173782737	-0.6312929151897907	2.202554046913716	-1.740666766359328	-1.740666766359327	-0.1803251329781707	0.06270250653364244	-1.137592660939354	0.3729496702634789	4.900008582445352e-07	2.931277143136178e-06	-1.825098909625918e-06	2.064990398288078e-07	5.900772891112391e-07	1.552742991021703e-06	4.823743650998309e-07
1.51	0.01535025311885626	-0.0001208928875352799	0.8095535436222244	0.8081187620881477	-0.3215652921973138	-0.08881793607808935	-0.800067447800814	1.019438057334067	1.019438057334691	-0.04409474524562827	-0.174514881362022	0.2752562649910749	0.07468868674575087	0.2989322970409676	0.1877913421329464	0.6486724822435921	-2.430049678932961	0.07327501802935103	-0.7124641895328386	0.8271576513969571	-2.689124844810028	-2.689124844809486	-0.3000630349464634	7.147383334612291e-05	-0.7320430741255803	-0.2210467718769674	-0.1894858642268634	0.02222725797873177	-0.009051447264016358	-0.2791521649081025	0.03104834037282215	0.04105619940621039	0.2717221696340768	-30.03212522932796	-13.9156616838409	3.298672241216092	-7.976415755843695	-649.682519196663	-73.65040308759377	-5.760253148170205	0.1458432864554093	0.7604108761265412	-0.9815675605676988	-0.6702727262899653	0.4436904152226639	-0.6764194588159262	2.136023197117415	-1.543580408988002	-1.543580408898409	-0.1884976358045011	-0.03890008250206301	-1.066296156796504	0.3580752753249881	4.291074106381623e-07	3.269979428447565e-06	-1.199590804144725e-06	2.920853824770752e-07	5.582354879177618e-07	1.754457659214817e-06	4.316769863224154e-07
1.52	0.01834601141246587	0.001794868307741281	0.8159896691990052	0.7837883225783392	-0.3208096497208215	-0.0959753457646023	-0.7916896141055839	0.9924736043126752	0.9924736043128695	-0.04710403311456577	-0.1745148367172839	0.267884257766426	0.07249764222123385	0.3001587935233641	0.1953449392392023	0.6384040520961597	-2.435738327709251	0.0778658640191689	-0.7190063546072651	0.8483264463478364	-2.703402122544225	-2.703402122543085	-0.3017671571661067	-8.283407244920592e-05	-0.7422133182905652	-0.2170948419377041	-0.1819188831111488	0.02163726052153362	-0.00920368791981835	-0.2725634469672585	0.03289203880294694	0.04088520782576017	0.263952030122588	-29.05131933943618	-14.17748089468094	3.528139045245268	-8.21019139535457	-642.8887175506679	-73.50506208067114	-6.775630069133832	0.09440650611271026	0.7499102130214175	-1.073036351198938	-0.4560469987215137	0.4864467207656283	-0.6141070667948801	2.103384482204334	-1.304951355098284	-1.304951355098358	-0.1434581420229936	0.03774673591906329	-0.9623032809096759	0.4501326789558162	5.06820668176736e-07	2.841049333488213e-06	-1.893165579205589e-06	1.659545538018025e-07	6.644074176350911e-07	1.686267479622687e-06	4.68084491393051e-07
1.53	0.02135223249227413	0.003785667970870902	0.8223188048793806	0.7594097587661757	-0.3200081936267985	-0.1031933130054463	-0.7831028743626032	0.9653772861570971	0.9653772861571335	-0.05013375502449347	-0.1745147449384322	0.2604148831817489	0.07034734423685392	0.3010163425981801	0.2027958561441076	0.6272849816286709	-2.439666770305393	0.08243380431486531	-0.7246159030859392	0.8689168727466339	-2.715484938079127	-2.715484938079132	-0.3041109162651757	6.368136182664284e-05	-0.7515006494399824	-0.2128997128034681	-0.1739962561202649	0.02071670140185714	-0.009360201073180171	-0.2668988362686429	0.03557209093887102	0.04050943621612987	0.2559547790980325	-27.84223606066622	-14.36860102118125	3.721508100184018	-8.547056455621904	-636.5078254875721	-73.32056049992254	-7.865835379188486	0.07114053002990402	0.7397372280327593	-1.151847234471618	-0.3149954861980166	0.4439105407883273	-0.5379881202130024	2.021177293104717	-1.103594294439855	-1.103594294611432	-0.2697986524540655	-0.003485763289285915	-0.8877518981097038	0.414410319807629	7.31803549931814e-07	1.596509834491212e-06	-3.988265914842372e-06	-1.851257694047291e-07	9.172189364451509e-07	1.331303399258736e-06	5.970409355522398e-07
1.54	0.02436497134718959	0.005850387762810355	0.8285326488870911	0.735001160008812	-0.319160669558458	-0.1104680976074312	-0.7743133692407593	0.9381714103178057	0.9381714103177043	-0.05318490729712436	-0.1745145059473357	0.2528574745123475	0.06824103900164646	0.3014623485475919	0.2101289650011687	0.6153457175632773	-2.441745316747034	0.08707945888322434	-0.7303698268369906	0.8888795221209586	-2.725313659284176	-2.725313659285325	-0.3060532297084525	-5.339162273965785e-05	-0.7598201352354753	-0.2082962921032223	-0.1660736291293841	0.01979614228219928	-0.009516714226330193	-0.2612342255700241	0.03825214307480358	0.04013366460652828	0.2479575280734694	-26.62601578968214	-14.56379563496347	3.918758423983577	-8.954462742125056	-630.0403109030084	-73.23792179519418	-8.999209519086914	0.01209788103146989	0.7263486034528233	-1.237075070779852	-0.08606776782119632	0.5019895752980679	-0.642982121270476	1.977829077309529	-0.8541324891277656	-0.8541324891277664	-0.06316901086457258	-0.01497094784943258	-0.768734210124543	0.5317909921578726	8.739802448034116e-07	7.289132997830974e-07	-5.315439064131417e-06	-4.161420910678764e-07	1.083888508250785e-06	1.143255400119374e-06	6.685449377633962e-07
